<?xml version="1.0" encoding="utf-8"?>
<!-- Generator: Adobe Illustrator 25.3.1, SVG Export Plug-In . SVG Version: 6.00 Build 0)  -->
<svg version="1.1" id="Layer_1" xmlns="http://www.w3.org/2000/svg" xmlns:xlink="http://www.w3.org/1999/xlink" x="0px" y="0px"
	 viewBox="0 0 179 58" style="enable-background:new 0 0 179 58;" xml:space="preserve">
<style type="text/css">
	.st0{fill:#383838;}
	.st1{fill:#F31C12;}
	.st2{fill:#1BA6F7;}
	.st3{fill:#F8C100;}
</style>
<g>
	<g>
		<path d="M19.4,44.1h1.3V57h-1.3V44.1z"/>
		<path d="M27.2,57V44.1h0.3l8.6,9.9v-9.9h1.3V57h-0.3l-8.5-9.8V57H27.2z"/>
		<path d="M42.8,45.4v-1.3h7.1v1.3H47V57h-1.3V45.4H42.8z"/>
		<path d="M55.3,44.1h7.4v1.3h-6.1v4h6v1.3h-6v5.1h6V57h-7.3V44.1z"/>
		<path d="M68.6,44.1h2.6c1.4,0,2.4,0.1,2.9,0.2c0.8,0.2,1.4,0.6,1.9,1.1s0.7,1.3,0.7,2.1c0,0.7-0.2,1.3-0.5,1.9s-0.8,0.9-1.4,1.2
			c-0.6,0.3-1.5,0.4-2.5,0.4l4.6,6h-1.6l-4.6-6h-0.7v6h-1.3C68.6,57,68.6,44.1,68.6,44.1z M69.9,45.4v4.4l2.2,0
			c0.9,0,1.5-0.1,1.9-0.2c0.4-0.2,0.7-0.4,1-0.8c0.2-0.4,0.3-0.8,0.3-1.2c0-0.4-0.1-0.8-0.4-1.2s-0.5-0.6-0.9-0.8s-1-0.2-1.9-0.2
			H69.9z"/>
		<path d="M88.2,44.1l6,12.9h-1.4l-2-4.2h-5.6l-2,4.2h-1.4l6.1-12.9H88.2z M88.1,46.8l-2.2,4.7h4.4L88.1,46.8z"/>
		<path d="M111.8,46.5l-1,0.8c-0.6-0.7-1.2-1.3-2-1.7c-0.8-0.4-1.6-0.6-2.6-0.6c-1,0-2,0.2-2.9,0.7c-0.9,0.5-1.6,1.2-2,2
			c-0.5,0.8-0.7,1.8-0.7,2.8c0,1.6,0.5,2.9,1.6,3.9s2.4,1.6,4.1,1.6c1.8,0,3.3-0.7,4.5-2.1l1,0.8c-0.6,0.8-1.4,1.5-2.4,1.9
			c-1,0.4-2,0.7-3.2,0.7c-2.3,0-4-0.8-5.3-2.3c-1.1-1.3-1.6-2.8-1.6-4.6c0-1.9,0.7-3.5,2-4.8s3-1.9,5-1.9c1.2,0,2.3,0.2,3.3,0.7
			C110.4,45,111.2,45.6,111.8,46.5z"/>
		<path d="M116.7,45.4v-1.3h7.1v1.3h-2.9V57h-1.3V45.4H116.7z"/>
		<path d="M129,44.1h1.3V57H129V44.1z"/>
		<path d="M135.9,44.1h1.4l4.3,10l4.3-10h1.4L141.7,57h-0.3L135.9,44.1z"/>
		<path d="M153,44.1h7.4v1.3h-6.1v4h6v1.3h-6v5.1h6V57H153L153,44.1L153,44.1z"/>
	</g>
	<polygon class="st0" points="3.3,1.8 19.5,1.8 19.5,5 6.6,5 6.6,15.1 15.7,15.1 15.7,18.3 6.6,18.3 6.6,34.1 3.3,34.1 	"/>
	<rect x="24.7" y="1.8" class="st0" width="3.2" height="32.3"/>
	<polygon class="st0" points="35.3,34.1 35.3,1.8 36,1.8 57.5,26.6 57.5,1.8 60.7,1.8 60.7,34.1 60,34.1 38.6,9.7 38.6,34.1 	"/>
	<polygon class="st0" points="68.6,1.8 87.1,1.8 87.1,5 71.8,5 71.8,15.1 83.1,15.1 83.1,18.3 71.8,18.3 71.8,31 86.9,31 86.9,34.1 
		68.6,34.1 	"/>
	<polygon class="st0" points="157.2,1.8 175.7,1.8 175.7,5 160.4,5 160.4,15.1 171.7,15.1 171.7,18.3 160.4,18.3 160.4,31 175.5,31 
		175.5,34.1 157.2,34.1 	"/>
	<path class="st1" d="M99.7,18c0.1,0.1,0.3,0.2,0.4,0.3l3-1.7c-0.2-0.2-0.5-0.4-0.7-0.6c-2.2-1.7-3.6-2.7-4-3.1
		c-0.7-0.7-1.2-1.4-1.5-2c-0.3-0.6-0.4-1.3-0.4-1.9c0-1.1,0.4-2,1.2-2.8c0.8-0.8,1.8-1.1,3-1.1c1,0,1.9,0.2,2.7,0.7
		c0.8,0.5,1.8,1.5,3,3l2.5-1.9c-1.4-1.9-2.7-3.2-4-4c-1.3-0.7-2.6-1.1-4.1-1.1c-1.4,0-2.6,0.3-3.8,1c-1.2,0.6-2.1,1.5-2.7,2.6
		c-0.6,1.1-1,2.3-1,3.7c0,1.7,0.5,3.3,1.6,4.7C95.6,14.6,97.1,16,99.7,18"/>
	<path class="st1" d="M108.6,21.8c-0.5-0.7-1.1-1.5-2-2.4l-3,1.7c0.9,0.8,1.6,1.6,2.1,2.3c0.7,1,1,2,1,3c0,0.9-0.2,1.8-0.7,2.6
		c-0.5,0.8-1.2,1.5-2.1,1.9c-0.9,0.5-1.9,0.7-2.9,0.7c-2.4,0-4.5-1.7-6.4-5.1l-2.6,1.6c1.3,2.3,2.7,4,4.2,5c1.5,1,3.2,1.5,5.1,1.5
		c2.4,0,4.5-0.8,6.2-2.5c1.7-1.6,2.5-3.6,2.5-5.8C110.1,24.9,109.6,23.3,108.6,21.8"/>
	<path class="st2" d="M120.7,18c0.1,0.1,0.3,0.2,0.4,0.3l3-1.7c-0.2-0.2-0.5-0.4-0.7-0.6c-2.2-1.7-3.6-2.7-4-3.1
		c-0.7-0.7-1.2-1.4-1.5-2.1c-0.3-0.6-0.4-1.3-0.4-1.9c0-1.1,0.4-2,1.2-2.8c0.8-0.8,1.8-1.1,3-1.1c1,0,1.9,0.2,2.7,0.7s1.8,1.5,3,3
		l2.5-1.9c-1.4-1.9-2.7-3.2-4-4c-1.3-0.7-2.6-1.1-4.1-1.1c-1.4,0-2.6,0.3-3.8,1c-1.2,0.6-2.1,1.5-2.7,2.6c-0.6,1.1-1,2.3-1,3.7
		c0,1.7,0.5,3.3,1.6,4.7C116.5,14.7,118.1,16.1,120.7,18"/>
	<path class="st2" d="M129.6,21.8c-0.5-0.7-1.1-1.5-2-2.4l-3,1.7c0.9,0.8,1.6,1.6,2.1,2.3c0.7,1,1,2,1,3c0,0.9-0.2,1.8-0.7,2.6
		c-0.5,0.8-1.2,1.5-2.1,1.9c-0.9,0.5-1.9,0.7-2.9,0.7c-2.4,0-4.5-1.7-6.4-5.1l-2.6,1.6c1.3,2.3,2.7,4,4.2,5c1.5,1,3.2,1.5,5.1,1.5
		c2.4,0,4.5-0.8,6.2-2.5c1.7-1.6,2.5-3.6,2.5-5.8C131.1,24.9,130.6,23.4,129.6,21.8"/>
	<path class="st3" d="M141.6,18c0.1,0.1,0.3,0.2,0.4,0.3l3-1.7c-0.2-0.2-0.5-0.4-0.7-0.6c-2.2-1.7-3.6-2.7-4-3.1
		c-0.7-0.7-1.2-1.4-1.5-2.1c-0.3-0.6-0.4-1.3-0.4-1.9c0-1.1,0.4-2,1.2-2.8c0.8-0.8,1.8-1.1,3-1.1c1,0,1.9,0.2,2.7,0.7
		c0.8,0.5,1.8,1.5,3,3l2.5-1.9c-1.4-1.9-2.7-3.2-4-4c-1.3-0.7-2.6-1.1-4.1-1.1c-1.4,0-2.6,0.3-3.8,1c-1.2,0.6-2.1,1.5-2.7,2.6
		c-0.6,1.1-1,2.3-1,3.7c0,1.7,0.5,3.3,1.6,4.7C137.4,14.7,139,16.1,141.6,18"/>
	<path class="st3" d="M150.5,21.8c-0.5-0.7-1.1-1.5-2-2.4l-3,1.7c0.9,0.8,1.6,1.6,2.1,2.3c0.7,1,1,2,1,3c0,0.9-0.2,1.8-0.7,2.6
		c-0.5,0.8-1.2,1.5-2.1,1.9s-1.9,0.7-2.9,0.7c-2.4,0-4.5-1.7-6.4-5.1l-2.6,1.6c1.3,2.3,2.7,4,4.2,5c1.5,1,3.2,1.5,5.1,1.5
		c2.4,0,4.5-0.8,6.2-2.5c1.7-1.6,2.5-3.6,2.5-5.8C152,24.9,151.5,23.4,150.5,21.8"/>
</g>
</svg>
