<?xml version="1.0" encoding="utf-8"?>
<!-- Generator: Adobe Illustrator 15.0.0, SVG Export Plug-In . SVG Version: 6.00 Build 0)  -->
<!DOCTYPE svg PUBLIC "-//W3C//DTD SVG 1.1//EN" "http://www.w3.org/Graphics/SVG/1.1/DTD/svg11.dtd">
<svg version="1.1" id="Layer_1" xmlns="http://www.w3.org/2000/svg" xmlns:xlink="http://www.w3.org/1999/xlink" x="0px" y="0px"
	 width="179px" height="58px" viewBox="0 0 179 58" enable-background="new 0 0 179 58" xml:space="preserve">
<g>
	<g>
		<path d="M19.369,44.108h1.288V57h-1.288V44.108z"/>
		<path d="M27.209,57V44.108h0.28l8.58,9.882v-9.882h1.271V57h-0.289l-8.51-9.762V57H27.209z"/>
		<path d="M42.77,45.37v-1.262h7.064v1.262h-2.875V57h-1.315V45.37H42.77z"/>
		<path d="M55.29,44.108h7.388v1.262h-6.1v4.04h6.047v1.263h-6.047v5.065h6.047V57H55.29V44.108z"/>
		<path d="M68.563,44.108h2.568c1.432,0,2.401,0.059,2.91,0.176c0.765,0.175,1.388,0.551,1.867,1.127s0.719,1.286,0.719,2.128
			c0,0.702-0.165,1.319-0.495,1.852s-0.802,0.935-1.416,1.207c-0.613,0.271-1.46,0.411-2.542,0.417L76.811,57h-1.594l-4.637-5.985
			h-0.728V57h-1.289V44.108z M69.852,45.37v4.382l2.221,0.018c0.86,0,1.497-0.081,1.909-0.245c0.413-0.163,0.734-0.425,0.966-0.784
			c0.231-0.359,0.347-0.761,0.347-1.205c0-0.433-0.117-0.825-0.351-1.179c-0.234-0.354-0.542-0.606-0.922-0.758
			c-0.38-0.152-1.013-0.229-1.896-0.229H69.852z"/>
		<path d="M88.226,44.108L94.238,57h-1.392l-2.028-4.242h-5.553L83.257,57h-1.438l6.091-12.892H88.226z M88.063,46.848l-2.209,4.666
			h4.408L88.063,46.848z"/>
		<path d="M111.814,46.501l-1.017,0.78c-0.561-0.73-1.234-1.284-2.021-1.661c-0.785-0.377-1.648-0.565-2.589-0.565
			c-1.028,0-1.981,0.247-2.857,0.74c-0.876,0.494-1.556,1.157-2.037,1.99c-0.482,0.832-0.724,1.769-0.724,2.809
			c0,1.571,0.539,2.883,1.617,3.935s2.438,1.578,4.079,1.578c1.806,0,3.316-0.707,4.531-2.121l1.017,0.771
			c-0.643,0.817-1.444,1.45-2.405,1.897c-0.962,0.446-2.035,0.67-3.221,0.67c-2.256,0-4.035-0.751-5.338-2.252
			c-1.093-1.268-1.639-2.799-1.639-4.593c0-1.887,0.662-3.475,1.985-4.763s2.98-1.933,4.974-1.933c1.203,0,2.29,0.238,3.26,0.714
			C110.4,44.975,111.195,45.642,111.814,46.501z"/>
		<path d="M116.691,45.37v-1.262h7.063v1.262h-2.874V57h-1.314V45.37H116.691z"/>
		<path d="M129.019,44.108h1.288V57h-1.288V44.108z"/>
		<path d="M135.868,44.108h1.402l4.272,9.96l4.343-9.96h1.402L141.679,57h-0.28L135.868,44.108z"/>
		<path d="M153.033,44.108h7.389v1.262h-6.1v4.04h6.047v1.263h-6.047v5.065h6.047V57h-7.336V44.108z"/>
	</g>
	<polygon fill="#383838" points="3.333,1.838 19.509,1.838 19.509,4.999 6.56,4.999 6.56,15.117 15.719,15.117 15.719,18.278 
		6.56,18.278 6.56,34.124 3.333,34.124 	"/>
	<rect x="24.667" y="1.838" fill="#383838" width="3.227" height="32.286"/>
	<polygon fill="#383838" points="35.312,34.124 35.312,1.838 36.015,1.838 57.502,26.587 57.502,1.838 60.685,1.838 60.685,34.124 
		59.96,34.124 38.648,9.677 38.648,34.124 	"/>
	<polygon fill="#383838" points="68.564,1.838 87.067,1.838 87.067,4.999 71.792,4.999 71.792,15.117 83.146,15.117 83.146,18.278 
		71.792,18.278 71.792,30.964 86.936,30.964 86.936,34.124 68.564,34.124 	"/>
	<polygon fill="#383838" points="157.164,1.838 175.667,1.838 175.667,4.999 160.391,4.999 160.391,15.117 171.745,15.117 
		171.745,18.278 160.391,18.278 160.391,30.964 175.535,30.964 175.535,34.124 157.164,34.124 	"/>
	<path fill="#383838" d="M99.711,17.983c0.144,0.109,0.284,0.215,0.421,0.321l2.999-1.727c-0.242-0.184-0.487-0.371-0.744-0.559
		c-2.244-1.659-3.568-2.685-3.973-3.075c-0.739-0.739-1.247-1.421-1.526-2.049c-0.278-0.626-0.419-1.275-0.419-1.944
		c0-1.101,0.396-2.028,1.184-2.782c0.787-0.752,1.8-1.129,3.041-1.129c0.962,0,1.852,0.245,2.667,0.732
		c0.814,0.488,1.801,1.499,2.958,3.033l2.511-1.904c-1.408-1.924-2.744-3.243-4.005-3.962c-1.263-0.718-2.617-1.077-4.068-1.077
		c-1.365,0-2.632,0.316-3.795,0.951c-1.165,0.635-2.067,1.503-2.709,2.604c-0.64,1.103-0.961,2.321-0.961,3.66
		c0,1.686,0.544,3.255,1.631,4.706C95.551,14.645,97.146,16.046,99.711,17.983"/>
	<path fill="#383838" d="M108.577,21.803c-0.475-0.737-1.146-1.523-2.005-2.359l-2.954,1.72c0.896,0.834,1.587,1.599,2.073,2.29
		c0.697,0.991,1.046,2.001,1.046,3.032c0,0.906-0.237,1.763-0.711,2.572c-0.474,0.81-1.163,1.453-2.069,1.935
		c-0.907,0.481-1.876,0.721-2.908,0.721c-2.411,0-4.537-1.693-6.378-5.081l-2.614,1.568c1.283,2.343,2.684,4.012,4.204,5.008
		c1.519,0.997,3.214,1.496,5.081,1.496c2.427,0,4.486-0.824,6.18-2.468c1.694-1.646,2.541-3.582,2.541-5.813
		C110.063,24.876,109.566,23.335,108.577,21.803"/>
	<path fill="#1BA6F7" d="M120.702,18.006c0.145,0.108,0.284,0.215,0.421,0.321l2.998-1.725c-0.239-0.186-0.485-0.372-0.742-0.561
		c-2.244-1.66-3.568-2.685-3.974-3.074c-0.738-0.739-1.247-1.423-1.526-2.05c-0.278-0.626-0.417-1.275-0.417-1.944
		c0-1.102,0.394-2.028,1.181-2.782c0.788-0.753,1.802-1.128,3.042-1.128c0.963,0,1.852,0.243,2.667,0.731s1.803,1.499,2.959,3.032
		l2.509-1.902c-1.408-1.924-2.741-3.245-4.003-3.963c-1.264-0.718-2.619-1.076-4.067-1.076c-1.367,0-2.632,0.317-3.798,0.951
		c-1.162,0.635-2.064,1.502-2.706,2.603c-0.642,1.102-0.963,2.321-0.963,3.661c0,1.686,0.544,3.254,1.632,4.704
		C116.541,14.667,118.138,16.069,120.702,18.006"/>
	<path fill="#1BA6F7" d="M129.569,21.825c-0.475-0.736-1.146-1.523-2.007-2.359l-2.952,1.721c0.895,0.835,1.586,1.598,2.073,2.29
		c0.695,0.99,1.045,2.001,1.045,3.032c0,0.907-0.237,1.765-0.71,2.573c-0.475,0.809-1.165,1.453-2.07,1.934
		c-0.907,0.48-1.877,0.721-2.908,0.721c-2.411,0-4.538-1.693-6.378-5.08l-2.613,1.568c1.282,2.342,2.684,4.011,4.203,5.008
		c1.521,0.997,3.213,1.496,5.082,1.496c2.425,0,4.484-0.824,6.18-2.468c1.693-1.646,2.539-3.583,2.539-5.813
		C131.053,24.897,130.56,23.358,129.569,21.825"/>
	<path fill="#383838" d="M141.604,18.006c0.143,0.108,0.283,0.215,0.422,0.321l2.996-1.725c-0.24-0.186-0.486-0.372-0.742-0.561
		c-2.244-1.66-3.568-2.685-3.973-3.074c-0.739-0.739-1.248-1.423-1.527-2.05c-0.278-0.626-0.418-1.275-0.418-1.944
		c0-1.102,0.394-2.028,1.181-2.782c0.788-0.753,1.803-1.128,3.044-1.128c0.962,0,1.851,0.243,2.667,0.731
		c0.815,0.488,1.801,1.499,2.957,3.032l2.511-1.902c-1.409-1.924-2.744-3.245-4.004-3.963c-1.263-0.718-2.617-1.076-4.068-1.076
		c-1.366,0-2.632,0.317-3.795,0.951c-1.165,0.635-2.068,1.502-2.709,2.603c-0.642,1.102-0.961,2.321-0.961,3.661
		c0,1.686,0.543,3.254,1.631,4.704C137.442,14.667,139.038,16.069,141.604,18.006"/>
	<path fill="#383838" d="M150.47,21.825c-0.476-0.736-1.146-1.523-2.006-2.359l-2.953,1.721c0.895,0.835,1.586,1.598,2.073,2.29
		c0.697,0.99,1.045,2.001,1.045,3.032c0,0.907-0.236,1.765-0.711,2.573c-0.474,0.809-1.165,1.453-2.07,1.934
		s-1.875,0.721-2.906,0.721c-2.413,0-4.538-1.693-6.378-5.08l-2.614,1.568c1.282,2.342,2.684,4.011,4.204,5.008
		c1.518,0.997,3.212,1.496,5.081,1.496c2.425,0,4.486-0.824,6.179-2.468c1.693-1.646,2.541-3.583,2.541-5.813
		C151.954,24.897,151.459,23.358,150.47,21.825"/>
</g>
</svg>
