<svg id="Layer_1" data-name="Layer 1" xmlns="http://www.w3.org/2000/svg" viewBox="0 0 130 90"><defs><style>.cls-1{fill:#4284f4;}.cls-2{fill:#34a853;}.cls-3{fill:#fbbc04;}.cls-4{fill:#ea4335;}.cls-5{fill:#5f6368;stroke:#5f6368;stroke-miterlimit:10;stroke-width:0.25px;}</style></defs><path class="cls-1" d="M85.83,32.6a26.11,26.11,0,0,0-.49-4.41H65.21v8.34H76.5a9.68,9.68,0,0,1-4.06,6.53V48.5h7c4.07-3.76,6.41-9.32,6.41-15.9Z"/><path class="cls-2" d="M65.15,53.71A20.6,20.6,0,0,0,79.42,48.5l-7-5.44A13,13,0,0,1,53.1,36.22H45.91v5.59a21.53,21.53,0,0,0,19.24,11.9Z"/><path class="cls-3" d="M53.1,36.22a12.78,12.78,0,0,1-.67-4.11A13,13,0,0,1,53.1,28V22.42H45.91a21.67,21.67,0,0,0,0,19.39l7.19-5.59Z"/><path class="cls-4" d="M65.15,19.11a11.63,11.63,0,0,1,8.24,3.23l6.17-6.19a20.64,20.64,0,0,0-14.41-5.63,21.53,21.53,0,0,0-19.24,11.9L53.1,28a12.83,12.83,0,0,1,12.05-8.9Z"/><path class="cls-5" d="M18.7,75.69a5.18,5.18,0,0,1-1.93-1.93,5.55,5.55,0,0,1,0-5.43,5.25,5.25,0,0,1,4.59-2.63,5.6,5.6,0,0,1,2.13.4,4.26,4.26,0,0,1,1.63,1.13l-.87.87A3.11,3.11,0,0,0,23,67.18a4.11,4.11,0,0,0-5.16,1.67,4.31,4.31,0,0,0-.56,2.2,4.25,4.25,0,0,0,.56,2.19,3.87,3.87,0,0,0,1.51,1.47,4.09,4.09,0,0,0,2,.53,4,4,0,0,0,1.72-.33,3.64,3.64,0,0,0,1.19-.85,2.9,2.9,0,0,0,.6-1,4.09,4.09,0,0,0,.29-1.25H21.39V70.72h4.92a4,4,0,0,1,.07.74,5.77,5.77,0,0,1-.3,1.84,4,4,0,0,1-1,1.56,4.86,4.86,0,0,1-3.76,1.53A5.21,5.21,0,0,1,18.7,75.69Z"/><path class="cls-5" d="M29.39,75.88a3.61,3.61,0,0,1-1.34-1.4,4.32,4.32,0,0,1,0-3.92,3.61,3.61,0,0,1,1.34-1.4,3.84,3.84,0,0,1,3.86,0,3.61,3.61,0,0,1,1.34,1.4,4.24,4.24,0,0,1,0,3.92,3.61,3.61,0,0,1-1.34,1.4,3.91,3.91,0,0,1-3.86,0ZM32.57,75a2.48,2.48,0,0,0,.93-1,3.26,3.26,0,0,0,0-2.94,2.43,2.43,0,0,0-2.18-1.3,2.52,2.52,0,0,0-1.26.33,2.48,2.48,0,0,0-.93,1,3.26,3.26,0,0,0,0,2.94,2.48,2.48,0,0,0,.93,1,2.52,2.52,0,0,0,1.26.33A2.46,2.46,0,0,0,32.57,75Z"/><path class="cls-5" d="M37.9,75.88a3.61,3.61,0,0,1-1.34-1.4,4.24,4.24,0,0,1,0-3.92,3.61,3.61,0,0,1,1.34-1.4,3.84,3.84,0,0,1,3.86,0,3.61,3.61,0,0,1,1.34,1.4,4.24,4.24,0,0,1,0,3.92,3.61,3.61,0,0,1-1.34,1.4,3.91,3.91,0,0,1-3.86,0ZM41.08,75A2.48,2.48,0,0,0,42,74a3.26,3.26,0,0,0,0-2.94,2.43,2.43,0,0,0-2.18-1.3,2.52,2.52,0,0,0-1.26.33,2.48,2.48,0,0,0-.93,1,3.18,3.18,0,0,0,0,2.94,2.48,2.48,0,0,0,.93,1,2.52,2.52,0,0,0,1.26.33A2.46,2.46,0,0,0,41.08,75Z"/><path class="cls-5" d="M46.06,78.88a2.93,2.93,0,0,1-1.13-1.44L46,77a2.17,2.17,0,0,0,.8,1,2.63,2.63,0,0,0,3.09-.24,2.43,2.43,0,0,0,.62-1.8v-.81h0a2.68,2.68,0,0,1-1,.9,3,3,0,0,1-1.48.35,3.13,3.13,0,0,1-1.72-.49,3.43,3.43,0,0,1-1.24-1.37,4.6,4.6,0,0,1,0-4,3.33,3.33,0,0,1,1.24-1.38,3.14,3.14,0,0,1,1.72-.5,3.11,3.11,0,0,1,1.48.35,2.75,2.75,0,0,1,1,.93h0v-1h1.16v7a3.51,3.51,0,0,1-1,2.68,4,4,0,0,1-4.68.32ZM49.37,75a2.3,2.3,0,0,0,.86-1,3.14,3.14,0,0,0,.32-1.48,3.19,3.19,0,0,0-.32-1.5,2.34,2.34,0,0,0-.86-1,2.19,2.19,0,0,0-1.19-.32,2.26,2.26,0,0,0-1.2.33,2.39,2.39,0,0,0-.87,1,3.23,3.23,0,0,0-.32,1.48A3.31,3.31,0,0,0,46.11,74,2.39,2.39,0,0,0,47,75a2.34,2.34,0,0,0,1.2.32A2.2,2.2,0,0,0,49.37,75Z"/><path class="cls-5" d="M53.5,65.93h1.22V76.17H53.5Z"/><path class="cls-5" d="M57.89,75.89a3.44,3.44,0,0,1-1.29-1.38,4.14,4.14,0,0,1-.47-2,4.35,4.35,0,0,1,.44-1.94,3.61,3.61,0,0,1,1.23-1.42,3.35,3.35,0,0,1,1.86-.53,3.48,3.48,0,0,1,1.86.48,3.12,3.12,0,0,1,1.21,1.33,4.25,4.25,0,0,1,.42,1.93,1.4,1.4,0,0,1,0,.37H57.35a2.88,2.88,0,0,0,.4,1.4,2.32,2.32,0,0,0,.9.86,2.51,2.51,0,0,0,1.16.28A2.37,2.37,0,0,0,62,74l1,.5a3.61,3.61,0,0,1-1.28,1.4,3.54,3.54,0,0,1-2,.51A3.49,3.49,0,0,1,57.89,75.89Zm4-4.14a2.46,2.46,0,0,0-.26-.92,2,2,0,0,0-.72-.77,2.28,2.28,0,0,0-1.24-.31,2,2,0,0,0-1.45.55,2.57,2.57,0,0,0-.78,1.45Z"/><path class="cls-5" d="M67.55,65.93H71a3.45,3.45,0,0,1,1.59.38,3.09,3.09,0,0,1,1.16,1.08,3,3,0,0,1,0,3.14,3,3,0,0,1-1.16,1.07A3.34,3.34,0,0,1,71,72H68.76v4.18H67.55ZM71,70.83a1.88,1.88,0,0,0,1-.27,2,2,0,0,0,.68-.7A1.84,1.84,0,0,0,73,69a1.78,1.78,0,0,0-.24-.9,2,2,0,0,0-.68-.7,1.88,1.88,0,0,0-1-.27H68.76v3.74Z"/><path class="cls-5" d="M76.64,76.08a2.37,2.37,0,0,1-1-.87A2.28,2.28,0,0,1,75.32,74a2.14,2.14,0,0,1,.87-1.81,3.61,3.61,0,0,1,2.2-.65,4.82,4.82,0,0,1,1.23.15,2.86,2.86,0,0,1,.86.33v-.45a1.65,1.65,0,0,0-.57-1.31,2.16,2.16,0,0,0-1.44-.49,2.39,2.39,0,0,0-1.13.27,2,2,0,0,0-.82.73l-.91-.68a2.82,2.82,0,0,1,1.18-1,3.65,3.65,0,0,1,1.66-.38,3.34,3.34,0,0,1,2.34.78,2.74,2.74,0,0,1,.85,2.13v4.62H80.48v-1h-.06a2.55,2.55,0,0,1-.94.9,2.7,2.7,0,0,1-1.41.37A3.1,3.1,0,0,1,76.64,76.08ZM79.32,75a2.31,2.31,0,0,0,.85-.85A2.18,2.18,0,0,0,80.48,73a3,3,0,0,0-.84-.38,4.11,4.11,0,0,0-1.06-.14,2.32,2.32,0,0,0-1.51.42A1.3,1.3,0,0,0,76.56,74,1.21,1.21,0,0,0,77,75a1.77,1.77,0,0,0,1.16.37A2.17,2.17,0,0,0,79.32,75Z"/><path class="cls-5" d="M83.13,69h1.16v1.16h0a1.93,1.93,0,0,1,.87-1,2.62,2.62,0,0,1,1.35-.36,2.66,2.66,0,0,1,.53,0v1.24a3.69,3.69,0,0,0-.66,0,2,2,0,0,0-1.51.61,2.28,2.28,0,0,0-.58,1.6v4H83.13Zm7.4,7.26a1.92,1.92,0,0,1-.64-.39,2,2,0,0,1-.43-.64,2.6,2.6,0,0,1-.14-.89V70H88.05v-1.1h1.27V66.81h1.21v2.06h1.78V70H90.53V74a1.45,1.45,0,0,0,.23.9,1,1,0,0,0,.79.33,1.5,1.5,0,0,0,.8-.25v1.19a1.73,1.73,0,0,1-.44.14,2.86,2.86,0,0,1-.56,0A2.17,2.17,0,0,1,90.53,76.25Z"/><path class="cls-5" d="M93.69,68.87h1.16V70h.06a2.46,2.46,0,0,1,1-.93,2.78,2.78,0,0,1,1.4-.38,2.57,2.57,0,0,1,2,.77,3,3,0,0,1,.69,2.08v4.68H98.76V71.68a2,2,0,0,0-.49-1.48,1.88,1.88,0,0,0-1.33-.45,1.83,1.83,0,0,0-1,.32,2.19,2.19,0,0,0-.72.87,2.59,2.59,0,0,0-.26,1.12v4.11H93.69Z"/><path class="cls-5" d="M103.09,75.89a3.46,3.46,0,0,1-1.3-1.38,4.25,4.25,0,0,1-.46-2,4.35,4.35,0,0,1,.44-1.94A3.61,3.61,0,0,1,103,69.17a3.35,3.35,0,0,1,1.86-.53,3.48,3.48,0,0,1,1.86.48,3.12,3.12,0,0,1,1.21,1.33,4.25,4.25,0,0,1,.42,1.93,1.4,1.4,0,0,1,0,.37h-5.76a2.78,2.78,0,0,0,.4,1.4,2.32,2.32,0,0,0,.9.86,2.47,2.47,0,0,0,1.15.28A2.35,2.35,0,0,0,107.16,74l1,.5a3.61,3.61,0,0,1-1.28,1.4,3.56,3.56,0,0,1-2,.51A3.49,3.49,0,0,1,103.09,75.89Zm4-4.14a2.44,2.44,0,0,0-.25-.92,2.06,2.06,0,0,0-.73-.77,2.22,2.22,0,0,0-1.23-.31,2,2,0,0,0-1.45.55,2.57,2.57,0,0,0-.78,1.45Z"/><path class="cls-5" d="M109.75,68.87h1.16v1.18H111a2,2,0,0,1,.83-1,2.38,2.38,0,0,1,1.28-.4,2.2,2.2,0,0,1,.86.16v1.3a2.29,2.29,0,0,0-1-.23,1.71,1.71,0,0,0-1,.3,2.26,2.26,0,0,0-.71.82,2.37,2.37,0,0,0-.26,1.09v4.09h-1.22Z"/></svg>