<?xml version="1.0" encoding="utf-8"?>
<!-- Generator: Adobe Illustrator 27.2.0, SVG Export Plug-In . SVG Version: 6.00 Build 0)  -->
<svg version="1.0" xmlns="http://www.w3.org/2000/svg" xmlns:xlink="http://www.w3.org/1999/xlink" x="0px" y="0px"
	 viewBox="0 0 73.9 65.6" style="enable-background:new 0 0 73.9 65.6;" xml:space="preserve">
<style type="text/css">
	.st0{display:none;}
	.st1{fill:none;stroke:#1BA6F7;stroke-width:0.5;stroke-miterlimit:10;}
	.st2{fill:#F8C102;stroke:#1BA6F7;stroke-width:0.5;stroke-miterlimit:10;}
	.st3{fill:#1BA6F7;}
	.st4{fill:#F8C102;}
	.st5{fill:none;stroke:#F8C102;stroke-width:4;stroke-miterlimit:10;}
	.st6{fill:none;}
</style>
<g id="Layer_1" class="st0">
</g>
<g id="Layer_2">
	<g>
		<path class="st5" d="M28.5,4.1c0,0,17.7,0.5,20.3,17.2"/>
		<path class="st5" d="M48.9,28.9c0,0-4.1,17.2-21,16.3"/>
		<path class="st5" d="M28.5,44.7c-11.2,0-20.3-9.1-20.3-20.3S17.3,4.1,28.5,4.1"/>
		<path class="st6" d="M49.8,21.9C48.2,9.9,37.4,1.5,25.7,3.2S5.8,15.9,7.4,28s12.4,20.4,24.1,18.8c9-1.3,16.2-8.2,18-17.4"/>
		<g>
			<path class="st4" d="M41.8,42.7L61,61.8c0.7,0.7,1.6,1,2.5,1l0,0c2,0,3.5-1.6,3.5-3.5l0,0c0-0.9-0.4-1.8-1-2.5L46.8,37.7"/>
			<path class="st3" d="M48.1,37.6c1.4-2.1,2.4-4.3,3.1-6.7H54c0.3,0,0.6-0.2,0.8-0.4l1.2-1.8l1.2,1.8c0.2,0.3,0.5,0.4,0.8,0.4h3
				c0.2,0,0.5-0.1,0.6-0.2l6-5c0.4-0.4,0.5-1,0.1-1.4c-0.1-0.1-0.2-0.2-0.3-0.2l-5-3c-0.2-0.1-0.3-0.1-0.5-0.1H51.6
				C49.4,8.3,37.5-0.1,25,2.1S4,16.3,6.2,28.8s14.1,20.9,26.7,18.7C36,47,39,45.8,41.7,44l18.5,18.5c1.8,1.8,4.6,1.8,6.4,0
				c1.8-1.8,1.8-4.6,0-6.4L48.1,37.6z M65.3,25l-4.6,3.9h-2.1l-1.7-2.6c-0.3-0.5-1-0.6-1.5-0.2c-0.1,0.1-0.2,0.1-0.2,0.2l-1.7,2.6
				h-1.9l-1.7-2.6c-0.3-0.5-0.9-0.6-1.4-0.3c-0.1,0.1-0.3,0.2-0.3,0.4l-1.2,2.5l-1-1.6c-0.2-0.3-0.5-0.4-0.8-0.4h-3
				c-0.6,0-1,0.4-1,1V30l-2.4-1.6c-0.5-0.3-1.1-0.2-1.4,0.3c0,0-0.1,0.1-0.1,0.2C35,33.9,29.1,36.2,24,34c-5.1-2.2-7.4-8.1-5.2-13.2
				c2.2-5.1,8.1-7.4,13.2-5.2c2.3,1,4.2,2.9,5.2,5.2c0.2,0.5,0.8,0.7,1.3,0.5c0.1,0,0.1-0.1,0.2-0.1l2.4-1.6v2.1c0,0.6,0.4,1,1,1
				h19.7L65.3,25z M42.5,17c-0.3-0.2-0.7-0.2-1,0l-3,2c-3.2-5.8-10.5-7.9-16.3-4.6s-7.9,10.5-4.6,16.3s10.5,7.9,16.3,4.6
				c1.9-1.1,3.5-2.7,4.6-4.6c0.7,0.5,1.6,1.1,3,2c0.5,0.3,1.1,0.2,1.4-0.3c0.1-0.2,0.2-0.4,0.2-0.6v-3h1.5l0.7,1.1
				c-2.8,9-12.4,13.9-21.3,11.1S9.9,28.7,12.8,19.7S25.1,5.8,34.1,8.6c5.7,1.8,10,6.4,11.4,12.2H43v-3C43,17.5,42.8,17.2,42.5,17z
				 M8,24.9c0-11.6,9.4-21,21-21c10.1,0,18.7,7.1,20.6,17h-2C45.3,10.6,35.2,4.1,25,6.3S8.2,18.7,10.5,28.9S22.8,45.6,33,43.4
				c6.2-1.3,11.3-5.7,13.7-11.6c0.1,0,0.3,0.1,0.4,0.1c0.4,0,0.7-0.2,0.8-0.6l1.2-2.5l0.4,0.6C47,40.7,35.7,47.9,24.4,45.3
				C14.8,43.2,8,34.7,8,24.9z M63.5,61.9c-0.7,0-1.3-0.3-1.8-0.7L43.3,42.8c1.3-1.1,2.5-2.3,3.6-3.6l18.3,18.3c1,1,1,2.6,0,3.6
				C64.8,61.6,64.1,61.9,63.5,61.9z"/>
		</g>
		<g>
			<path class="st4" d="M28.9,22.1l1.3,4.4l1.4-4.4h1.6L31.1,28h-1.7l-0.6-1.8l-0.5-2l-0.5,2L27.1,28h-1.7l-2.1-5.9H25l1.4,4.4
				l1.3-4.4H28.9z"/>
		</g>
	</g>
</g>
</svg>
