<?xml version="1.0" encoding="utf-8"?>
<!-- Generator: Adobe Illustrator 27.2.0, SVG Export Plug-In . SVG Version: 6.00 Build 0)  -->
<svg version="1.1" xmlns="http://www.w3.org/2000/svg" xmlns:xlink="http://www.w3.org/1999/xlink" x="0px" y="0px"
	 viewBox="0 0 30.1 31.1" style="enable-background:new 0 0 30.1 31.1;" xml:space="preserve">
<style type="text/css">
	.st0{display:none;}
	.st1{fill:none;stroke:#000000;stroke-width:0.75;stroke-miterlimit:10;}
	.st2{fill:#F8C102;stroke:#000000;stroke-width:0.5;stroke-miterlimit:10;}
	.st3{fill:#1BA6F7;}
	.st4{fill:#F8C102;stroke:#1BA6F7;stroke-width:0.5;stroke-miterlimit:10;}
	.st5{fill:none;stroke:#1BA6F7;stroke-width:0.5;stroke-miterlimit:10;}
	.st6{fill:#F8C102;}
</style>
<g id="Layer_1" class="st0">
</g>
<g id="Layer_2">
	<g>
		<path class="st3" d="M3.8,26.4h22.4c0.1,0,0.2-0.1,0.2-0.2V8.7c0-0.1-0.1-0.2-0.2-0.2H3.8c-0.1,0-0.2,0.1-0.2,0.2v17.4
			C3.6,26.3,3.7,26.4,3.8,26.4z M4,8.9h22v17H4V8.9z"/>
		<path class="st3" d="M3.4,28h23.3c0.8,0,1.4-0.6,1.4-1.4V4.5c0-0.8-0.6-1.4-1.4-1.4H3.4C2.6,3.1,2,3.7,2,4.5v22.1
			C2,27.4,2.6,28,3.4,28z M2.4,4.5c0-0.6,0.5-1,1-1h23.3c0.6,0,1,0.5,1,1v2.4H2.4V4.5z M2.4,7.3h25.3v19.3c0,0.6-0.5,1-1,1H3.4
			c-0.6,0-1-0.5-1-1V7.3z"/>
		<path class="st6" d="M5.3,4.4c-0.4,0-0.8,0.3-0.8,0.8c0,0.4,0.3,0.8,0.8,0.8c0.4,0,0.8-0.3,0.8-0.8C6.1,4.8,5.8,4.4,5.3,4.4z
			 M5.3,5.5C5.1,5.5,5,5.4,5,5.2s0.2-0.4,0.4-0.4c0.2,0,0.4,0.2,0.4,0.4C5.7,5.4,5.5,5.5,5.3,5.5z M7.4,4.4C7,4.4,6.7,4.8,6.7,5.2
			c0,0.4,0.3,0.8,0.8,0.8c0.4,0,0.8-0.3,0.8-0.8C8.2,4.8,7.9,4.4,7.4,4.4z M7.4,5.5c-0.2,0-0.4-0.2-0.4-0.4s0.2-0.4,0.4-0.4
			c0.2,0,0.4,0.2,0.4,0.4C7.8,5.4,7.6,5.5,7.4,5.5z M9.6,4.4c-0.4,0-0.8,0.3-0.8,0.8c0,0.4,0.3,0.8,0.8,0.8c0.4,0,0.8-0.3,0.8-0.8
			C10.3,4.8,10,4.4,9.6,4.4z M9.6,5.5c-0.2,0-0.4-0.2-0.4-0.4s0.2-0.4,0.4-0.4c0.2,0,0.4,0.2,0.4,0.4C9.9,5.4,9.7,5.5,9.6,5.5z
			 M25.3,5H12.2C12.1,5,12,5.1,12,5.2s0.1,0.2,0.2,0.2h13.1c0.1,0,0.2-0.1,0.2-0.2S25.4,5,25.3,5z M25.3,16.3c0.1,0,0.2-0.1,0.2-0.2
			c0,0,0-0.1,0-0.1c-0.5-1-1.6-1.7-2.7-1.7c-1,0-2,0.5-2.6,1.4c-0.1,0.1-0.1,0.2-0.1,0.3l-0.2-0.1c-0.1-0.3-0.2-0.5-0.3-0.8l0.6-1.2
			c0-0.1,0-0.2,0-0.2l-1.3-1.3c-0.1-0.1-0.2-0.1-0.2,0L17.4,13c-0.3-0.1-0.5-0.3-0.8-0.3l-0.4-1.3c0-0.1-0.1-0.1-0.2-0.1h-1.9
			c-0.1,0-0.2,0.1-0.2,0.1l-0.4,1.3c-0.3,0.1-0.5,0.2-0.8,0.3l-1.2-0.6c-0.1,0-0.2,0-0.2,0L10,13.7C10,13.8,10,13.9,10,14l0.6,1.2
			c-0.2,0.3-0.3,0.6-0.4,0.9c0,0,0,0,0,0.1v0c-0.5-1.1-1.6-1.8-2.8-1.8c-1.2,0-2.2,0.6-2.7,1.7c-0.1,0.1,0,0.2,0.1,0.3
			c0,0,0.1,0,0.1,0l2.2,0l0.7,1.1l-0.7,1.1H4.9c-0.1,0-0.2,0.1-0.2,0.2c0,0,0,0.1,0,0.1c0.5,1,1.6,1.7,2.8,1.7
			c1.2,0,2.3-0.7,2.8-1.8c0,0,0,0,0,0c0.1,0.3,0.2,0.6,0.4,0.9L10,20.9c0,0.1,0,0.2,0,0.2l1.3,1.3c0.1,0.1,0.2,0.1,0.2,0l1.2-0.6
			c0.3,0.1,0.5,0.3,0.8,0.3l0.4,1.3c0,0.1,0.1,0.1,0.2,0.1H16c0.1,0,0.2-0.1,0.2-0.1l0.4-1.3c0.3-0.1,0.6-0.2,0.8-0.3l1.2,0.6
			c0.1,0,0.2,0,0.2,0l1.3-1.3c0.1-0.1,0.1-0.2,0-0.2l-0.6-1.2c0.1-0.3,0.3-0.6,0.3-0.8l0.2-0.1c0,0.1,0.1,0.2,0.2,0.3
			c0.6,0.9,1.5,1.4,2.6,1.4h0c1.2,0,2.2-0.6,2.7-1.7c0.1-0.1,0-0.2-0.1-0.3c0,0-0.1,0-0.1,0h-2.2l-0.7-1.1l0.7-1.1L25.3,16.3
			L25.3,16.3z M10,18.5c-0.4,1.1-1.4,1.7-2.5,1.7c-0.9,0-1.7-0.4-2.2-1.1h2c0.1,0,0.1,0,0.2-0.1l0.9-1.3c0-0.1,0-0.2,0-0.2L7.4,16
			c0-0.1-0.1-0.1-0.2-0.1l-2,0c0.5-0.7,1.3-1.1,2.2-1.1c1.1,0,2.1,0.7,2.5,1.7c0,0.1,0.1,0.1,0.2,0.1h7.6c0.2,0.5,0.3,1.1,0,1.8
			h-7.6C10.1,18.3,10,18.4,10,18.5L10,18.5z M12.6,16.2c0.5-0.9,1.4-1.5,2.5-1.5c1.1,0,2,0.6,2.5,1.5H12.6L12.6,16.2z M17.6,18.7
			c-0.5,0.9-1.4,1.5-2.5,1.5s-2-0.6-2.5-1.5H17.6L17.6,18.7z M19.6,18.6c-0.1,0-0.1,0.1-0.1,0.1c-0.1,0.3-0.2,0.6-0.4,1
			c0,0.1,0,0.1,0,0.2l0.6,1.1l-1.1,1.1l-1.1-0.6c-0.1,0-0.1,0-0.2,0c-0.3,0.2-0.6,0.3-0.9,0.4c-0.1,0-0.1,0.1-0.1,0.1l-0.4,1.2h-1.5
			L13.9,22c0-0.1-0.1-0.1-0.1-0.1c-0.3-0.1-0.6-0.2-0.9-0.4c-0.1,0-0.1,0-0.2,0l-1.1,0.6L10.4,21l0.6-1.1c0-0.1,0-0.1,0-0.2
			c-0.2-0.3-0.3-0.6-0.4-0.9v0h1.5c0.5,1.2,1.7,1.9,2.9,1.9c1.7,0,3.1-1.3,3.2-3c0.1-2-1.5-3.4-3.2-3.4c-1.3,0-2.4,0.8-2.9,1.9h-1.5
			v0c0.1-0.3,0.2-0.6,0.4-0.9c0-0.1,0-0.1,0-0.2l-0.6-1.1l1.1-1.1l1.1,0.6c0.1,0,0.1,0,0.2,0c0.3-0.2,0.6-0.3,0.9-0.4
			c0.1,0,0.1-0.1,0.1-0.1l0.4-1.2h1.5l0.4,1.2c0,0.1,0.1,0.1,0.1,0.1c0.3,0.1,0.6,0.2,0.9,0.4c0.1,0,0.1,0,0.2,0l1.1-0.6l1.1,1.1
			L19.1,15c0,0.1,0,0.1,0,0.2c0.2,0.3,0.3,0.6,0.4,1c0,0.1,0.1,0.1,0.1,0.1l1.2,0.4v1.5l-0.8,0.2c0,0,0,0,0,0L19.6,18.6L19.6,18.6z
			 M22.9,16L22,17.3c0,0.1,0,0.2,0,0.2l0.9,1.3C22.9,19,23,19,23,19h2c-0.5,0.7-1.3,1.1-2.2,1.1h0c-0.9,0-1.7-0.4-2.2-1.2
			c0,0-0.1-0.1-0.1-0.2l0.7-0.2c0.1,0,0.1-0.1,0.1-0.2v-1.9c0-0.1-0.1-0.2-0.1-0.2l-0.7-0.2c0-0.1,0.1-0.1,0.1-0.2
			c0.5-0.8,1.3-1.2,2.2-1.2c0.9,0,1.7,0.4,2.2,1.1l-2,0C23,15.9,22.9,15.9,22.9,16L22.9,16z"/>
	</g>
</g>
</svg>
