<?xml version="1.0" encoding="utf-8"?>
<!-- Generator: Adobe Illustrator 27.2.0, SVG Export Plug-In . SVG Version: 6.00 Build 0)  -->
<svg version="1.1" xmlns="http://www.w3.org/2000/svg" xmlns:xlink="http://www.w3.org/1999/xlink" x="0px" y="0px"
	 viewBox="0 0 30.1 31.1" style="enable-background:new 0 0 30.1 31.1;" xml:space="preserve">
<style type="text/css">
	.st0{display:none;}
	.st1{fill:none;stroke:#1BA6F7;stroke-width:0.5;stroke-miterlimit:10;}
	.st2{fill:#F8C102;stroke:#1BA6F7;stroke-width:0.5;stroke-miterlimit:10;}
	.st3{fill:#1BA6F7;}
	.st4{fill:#F8C102;}
</style>
<g id="Layer_1" class="st0">
</g>
<g id="Layer_2">
	<g>
		<polyline class="st1" points="4.3,8.4 3.6,6.7 13.1,3 21.4,6.4 27.6,21.8 12.5,28 11.7,26.3 11.5,26.3 		"/>
		<polygon class="st2" points="13.4,3.3 20.9,6.3 15.6,7.8 		"/>
		<path class="st3" d="M14.2,11.5l1.9-0.7c0,0,0.8-0.3,1.1,0.1c0,0,0.4,0.7-0.6,1l-3.3,1.4c0,0-0.7,0.3-0.9-0.1c0,0-0.4-0.7,0.5-1
			L14.2,11.5z"/>
		<path class="st3" d="M20.7,13.5l-8.6,3.3c-0.2,0.1-0.4,0-0.5-0.2l-0.1-0.2c-0.1-0.2,0-0.4,0.2-0.5l8.6-3.3c0.2-0.1,0.4,0,0.5,0.2
			l0.1,0.2C21,13.2,20.9,13.5,20.7,13.5z"/>
		<path class="st3" d="M21.6,16.5L13,19.8c-0.2,0.1-0.4,0-0.5-0.2l-0.1-0.2c-0.1-0.2,0-0.4,0.2-0.5l8.6-3.3c0.2-0.1,0.4,0,0.5,0.2
			l0.1,0.2C21.9,16.2,21.8,16.4,21.6,16.5z"/>
		<path class="st3" d="M22.6,19.4L14,22.7c-0.2,0.1-0.4,0-0.5-0.2l-0.1-0.2c-0.1-0.2,0-0.4,0.2-0.5l8.6-3.3c0.2-0.1,0.4,0,0.5,0.2
			l0.1,0.2C22.9,19,22.8,19.3,22.6,19.4z"/>
		<g>
			<circle class="st2" cx="6.3" cy="13" r="3.8"/>
			<line class="st1" x1="7.6" y1="16.6" x2="8.4" y2="18.4"/>
			<path class="st2" d="M11.8,24.4l-1.5,0.7c-0.3,0.1-0.6,0-0.7-0.3l-2.4-5.6c-0.1-0.3,0-0.6,0.3-0.7L9,17.9c0.3-0.1,0.6,0,0.7,0.3
				l2.4,5.6C12.2,24,12.1,24.3,11.8,24.4z"/>
		</g>
		<polygon class="st3" points="11.6,26.8 12.1,26.4 11.8,25.8 11.2,26.1 		"/>
	</g>
</g>
</svg>
